<svg width="1439" height="944" viewBox="0 0 1439 944" fill="none" xmlns="http://www.w3.org/2000/svg">
<g opacity="0.64" clip-path="url(#clip0_4142_1056)">
<rect y="-68" width="68.2292" height="68.2292" stroke="#EFF0F6" stroke-width="1.36458"/>
<rect x="68.2305" y="-68" width="68.2292" height="68.2292" stroke="#EFF0F6" stroke-width="1.36458"/>
<rect x="136.457" y="-68" width="68.2292" height="68.2292" stroke="#EFF0F6" stroke-width="1.36458"/>
<rect x="204.688" y="-68" width="68.2292" height="68.2292" stroke="#EFF0F6" stroke-width="1.36458"/>
<rect x="272.918" y="-68" width="68.2292" height="68.2292" stroke="#EFF0F6" stroke-width="1.36458"/>
<rect x="341.145" y="-68" width="68.2292" height="68.2292" stroke="#EFF0F6" stroke-width="1.36458"/>
<rect x="409.375" y="-68" width="68.2292" height="68.2292" stroke="#EFF0F6" stroke-width="1.36458"/>
<rect x="477.605" y="-68" width="68.2292" height="68.2292" stroke="#EFF0F6" stroke-width="1.36458"/>
<rect x="545.832" y="-68" width="68.2292" height="68.2292" stroke="#EFF0F6" stroke-width="1.36458"/>
<rect x="614.062" y="-68" width="68.2292" height="68.2292" stroke="#EFF0F6" stroke-width="1.36458"/>
<rect x="682.293" y="-68" width="68.2292" height="68.2292" stroke="#EFF0F6" stroke-width="1.36458"/>
<rect x="750.52" y="-68" width="68.2292" height="68.2292" stroke="#EFF0F6" stroke-width="1.36458"/>
<rect x="818.75" y="-68" width="68.2292" height="68.2292" stroke="#EFF0F6" stroke-width="1.36458"/>
<rect x="886.98" y="-68" width="68.2292" height="68.2292" stroke="#EFF0F6" stroke-width="1.36458"/>
<rect x="955.207" y="-68" width="68.2292" height="68.2292" stroke="#EFF0F6" stroke-width="1.36458"/>
<rect x="1023.44" y="-68" width="68.2292" height="68.2292" stroke="#EFF0F6" stroke-width="1.36458"/>
<rect x="1091.67" y="-68" width="68.2292" height="68.2292" stroke="#EFF0F6" stroke-width="1.36458"/>
<rect x="1159.89" y="-68" width="68.2292" height="68.2292" stroke="#EFF0F6" stroke-width="1.36458"/>
<rect x="1228.12" y="-68" width="68.2292" height="68.2292" stroke="#EFF0F6" stroke-width="1.36458"/>
<rect x="1296.36" y="-68" width="68.2292" height="68.2292" stroke="#EFF0F6" stroke-width="1.36458"/>
<rect x="1364.58" y="-68" width="68.2292" height="68.2292" stroke="#EFF0F6" stroke-width="1.36458"/>
<rect width="68.2292" height="68.2292" stroke="#EFF0F6" stroke-width="1.36458"/>
<rect x="68.2305" width="68.2292" height="68.2292" stroke="#EFF0F6" stroke-width="1.36458"/>
<rect x="136.457" width="68.2292" height="68.2292" fill="#9D9C9C" fill-opacity="0.13" stroke="#EFF0F6" stroke-width="1.36458"/>
<rect x="204.688" width="68.2292" height="68.2292" stroke="#EFF0F6" stroke-width="1.36458"/>
<rect x="272.918" width="68.2292" height="68.2292" stroke="#EFF0F6" stroke-width="1.36458"/>
<rect x="341.145" width="68.2292" height="68.2292" stroke="#EFF0F6" stroke-width="1.36458"/>
<rect x="409.375" width="68.2292" height="68.2292" stroke="#EFF0F6" stroke-width="1.36458"/>
<rect x="477.605" width="68.2292" height="68.2292" stroke="#EFF0F6" stroke-width="1.36458"/>
<rect x="545.832" width="68.2292" height="68.2292" stroke="#EFF0F6" stroke-width="1.36458"/>
<rect x="614.062" width="68.2292" height="68.2292" stroke="#EFF0F6" stroke-width="1.36458"/>
<rect x="682.293" width="68.2292" height="68.2292" stroke="#EFF0F6" stroke-width="1.36458"/>
<rect x="750.52" width="68.2292" height="68.2292" stroke="#EFF0F6" stroke-width="1.36458"/>
<rect x="818.75" width="68.2292" height="68.2292" stroke="#EFF0F6" stroke-width="1.36458"/>
<rect x="886.98" width="68.2292" height="68.2292" stroke="#EFF0F6" stroke-width="1.36458"/>
<rect x="955.207" width="68.2292" height="68.2292" stroke="#EFF0F6" stroke-width="1.36458"/>
<rect x="1023.44" width="68.2292" height="68.2292" stroke="#EFF0F6" stroke-width="1.36458"/>
<rect x="1091.67" width="68.2292" height="68.2292" stroke="#EFF0F6" stroke-width="1.36458"/>
<rect x="1159.89" width="68.2292" height="68.2292" stroke="#EFF0F6" stroke-width="1.36458"/>
<rect x="1228.12" width="68.2292" height="68.2292" stroke="#EFF0F6" stroke-width="1.36458"/>
<rect x="1296.36" width="68.2292" height="68.2292" stroke="#EFF0F6" stroke-width="1.36458"/>
<rect x="1364.58" width="68.2292" height="68.2292" stroke="#EFF0F6" stroke-width="1.36458"/>
<rect y="68" width="68.2292" height="68.2292" stroke="#EFF0F6" stroke-width="1.36458"/>
<rect x="68.2305" y="68.0001" width="68.2292" height="68.2292" stroke="#EFF0F6" stroke-width="1.36458"/>
<rect x="136.457" y="68" width="68.2292" height="68.2292" stroke="#EFF0F6" stroke-width="1.36458"/>
<rect x="204.688" y="68" width="68.2292" height="68.2292" stroke="#EFF0F6" stroke-width="1.36458"/>
<rect x="272.918" y="68" width="68.2292" height="68.2292" stroke="#EFF0F6" stroke-width="1.36458"/>
<rect x="341.145" y="68.0001" width="68.2292" height="68.2292" stroke="#EFF0F6" stroke-width="1.36458"/>
<rect x="409.375" y="68" width="68.2292" height="68.2292" stroke="#EFF0F6" stroke-width="1.36458"/>
<rect x="477.605" y="68.0001" width="68.2292" height="68.2292" stroke="#EFF0F6" stroke-width="1.36458"/>
<rect x="545.832" y="68" width="68.2292" height="68.2292" stroke="#EFF0F6" stroke-width="1.36458"/>
<rect x="614.062" y="68" width="68.2292" height="68.2292" stroke="#EFF0F6" stroke-width="1.36458"/>
<rect x="682.293" y="68" width="68.2292" height="68.2292" stroke="#EFF0F6" stroke-width="1.36458"/>
<rect x="750.52" y="68" width="68.2292" height="68.2292" stroke="#EFF0F6" stroke-width="1.36458"/>
<rect x="818.75" y="68.0001" width="68.2292" height="68.2292" stroke="#EFF0F6" stroke-width="1.36458"/>
<rect x="886.98" y="68" width="68.2292" height="68.2292" stroke="#EFF0F6" stroke-width="1.36458"/>
<rect x="955.207" y="68" width="68.2292" height="68.2292" stroke="#EFF0F6" stroke-width="1.36458"/>
<rect x="1023.44" y="68" width="68.2292" height="68.2292" stroke="#EFF0F6" stroke-width="1.36458"/>
<rect x="1091.67" y="68" width="68.2292" height="68.2292" fill="#9D9C9C" fill-opacity="0.13" stroke="#EFF0F6" stroke-width="1.36458"/>
<rect x="1159.89" y="68.0001" width="68.2292" height="68.2292" stroke="#EFF0F6" stroke-width="1.36458"/>
<rect x="1228.12" y="68" width="68.2292" height="68.2292" stroke="#EFF0F6" stroke-width="1.36458"/>
<rect x="1296.36" y="68.0001" width="68.2292" height="68.2292" stroke="#EFF0F6" stroke-width="1.36458"/>
<rect x="1364.58" y="68" width="68.2292" height="68.2292" stroke="#EFF0F6" stroke-width="1.36458"/>
<rect y="137" width="68.2292" height="68.2292" stroke="#EFF0F6" stroke-width="1.36458"/>
<rect x="68.2305" y="137" width="68.2292" height="68.2292" stroke="#EFF0F6" stroke-width="1.36458"/>
<rect x="136.457" y="137" width="68.2292" height="68.2292" stroke="#EFF0F6" stroke-width="1.36458"/>
<rect x="204.688" y="137" width="68.2292" height="68.2292" stroke="#EFF0F6" stroke-width="1.36458"/>
<rect x="272.918" y="137" width="68.2292" height="68.2292" stroke="#EFF0F6" stroke-width="1.36458"/>
<rect x="341.145" y="137" width="68.2292" height="68.2292" stroke="#EFF0F6" stroke-width="1.36458"/>
<rect x="409.375" y="137" width="68.2292" height="68.2292" stroke="#EFF0F6" stroke-width="1.36458"/>
<rect x="477.605" y="137" width="68.2292" height="68.2292" stroke="#EFF0F6" stroke-width="1.36458"/>
<rect x="545.832" y="137" width="68.2292" height="68.2292" stroke="#EFF0F6" stroke-width="1.36458"/>
<rect x="614.062" y="137" width="68.2292" height="68.2292" stroke="#EFF0F6" stroke-width="1.36458"/>
<rect x="682.293" y="137" width="68.2292" height="68.2292" stroke="#EFF0F6" stroke-width="1.36458"/>
<rect x="750.52" y="137" width="68.2292" height="68.2292" stroke="#EFF0F6" stroke-width="1.36458"/>
<rect x="818.75" y="137" width="68.2292" height="68.2292" stroke="#EFF0F6" stroke-width="1.36458"/>
<rect x="886.98" y="137" width="68.2292" height="68.2292" stroke="#EFF0F6" stroke-width="1.36458"/>
<rect x="955.207" y="137" width="68.2292" height="68.2292" stroke="#EFF0F6" stroke-width="1.36458"/>
<rect x="1023.44" y="137" width="68.2292" height="68.2292" stroke="#EFF0F6" stroke-width="1.36458"/>
<rect x="1091.67" y="137" width="68.2292" height="68.2292" stroke="#EFF0F6" stroke-width="1.36458"/>
<rect x="1159.89" y="137" width="68.2292" height="68.2292" stroke="#EFF0F6" stroke-width="1.36458"/>
<rect x="1228.12" y="137" width="68.2292" height="68.2292" stroke="#EFF0F6" stroke-width="1.36458"/>
<rect x="1296.36" y="137" width="68.2292" height="68.2292" stroke="#EFF0F6" stroke-width="1.36458"/>
<rect x="1364.58" y="137" width="68.2292" height="68.2292" stroke="#EFF0F6" stroke-width="1.36458"/>
<rect y="205" width="68.2292" height="68.2292" stroke="#EFF0F6" stroke-width="1.36458"/>
<rect x="68.2305" y="205" width="68.2292" height="68.2292" stroke="#EFF0F6" stroke-width="1.36458"/>
<rect x="136.457" y="205" width="68.2292" height="68.2292" stroke="#EFF0F6" stroke-width="1.36458"/>
<rect x="204.688" y="205" width="68.2292" height="68.2292" fill="#9D9C9C" fill-opacity="0.13" stroke="#EFF0F6" stroke-width="1.36458"/>
<rect x="272.918" y="205" width="68.2292" height="68.2292" stroke="#EFF0F6" stroke-width="1.36458"/>
<rect x="341.145" y="205" width="68.2292" height="68.2292" stroke="#EFF0F6" stroke-width="1.36458"/>
<rect x="409.375" y="205" width="68.2292" height="68.2292" stroke="#EFF0F6" stroke-width="1.36458"/>
<rect x="477.605" y="205" width="68.2292" height="68.2292" stroke="#EFF0F6" stroke-width="1.36458"/>
<rect x="545.832" y="205" width="68.2292" height="68.2292" stroke="#EFF0F6" stroke-width="1.36458"/>
<rect x="614.062" y="205" width="68.2292" height="68.2292" stroke="#EFF0F6" stroke-width="1.36458"/>
<rect x="682.293" y="205" width="68.2292" height="68.2292" stroke="#EFF0F6" stroke-width="1.36458"/>
<rect x="750.52" y="205" width="68.2292" height="68.2292" stroke="#EFF0F6" stroke-width="1.36458"/>
<rect x="818.75" y="205" width="68.2292" height="68.2292" fill="#9D9C9C" fill-opacity="0.13" stroke="#EFF0F6" stroke-width="1.36458"/>
<rect x="886.98" y="205" width="68.2292" height="68.2292" stroke="#EFF0F6" stroke-width="1.36458"/>
<rect x="955.207" y="205" width="68.2292" height="68.2292" stroke="#EFF0F6" stroke-width="1.36458"/>
<rect x="1023.44" y="205" width="68.2292" height="68.2292" stroke="#EFF0F6" stroke-width="1.36458"/>
<rect x="1091.67" y="205" width="68.2292" height="68.2292" stroke="#EFF0F6" stroke-width="1.36458"/>
<rect x="1159.89" y="205" width="68.2292" height="68.2292" stroke="#EFF0F6" stroke-width="1.36458"/>
<rect x="1228.12" y="205" width="68.2292" height="68.2292" stroke="#EFF0F6" stroke-width="1.36458"/>
<rect x="1296.36" y="205" width="68.2292" height="68.2292" stroke="#EFF0F6" stroke-width="1.36458"/>
<rect x="1364.58" y="205" width="68.2292" height="68.2292" stroke="#EFF0F6" stroke-width="1.36458"/>
<rect y="273" width="68.2292" height="68.2292" stroke="#EFF0F6" stroke-width="1.36458"/>
<rect x="68.2305" y="273" width="68.2292" height="68.2292" stroke="#EFF0F6" stroke-width="1.36458"/>
<rect x="136.457" y="273" width="68.2292" height="68.2292" stroke="#EFF0F6" stroke-width="1.36458"/>
<rect x="204.688" y="273" width="68.2292" height="68.2292" stroke="#EFF0F6" stroke-width="1.36458"/>
<rect x="272.918" y="273" width="68.2292" height="68.2292" stroke="#EFF0F6" stroke-width="1.36458"/>
<rect x="341.145" y="273" width="68.2292" height="68.2292" stroke="#EFF0F6" stroke-width="1.36458"/>
<rect x="409.375" y="273" width="68.2292" height="68.2292" stroke="#EFF0F6" stroke-width="1.36458"/>
<rect x="477.605" y="273" width="68.2292" height="68.2292" stroke="#EFF0F6" stroke-width="1.36458"/>
<rect x="545.832" y="273" width="68.2292" height="68.2292" stroke="#EFF0F6" stroke-width="1.36458"/>
<rect x="614.062" y="273" width="68.2292" height="68.2292" stroke="#EFF0F6" stroke-width="1.36458"/>
<rect x="682.293" y="273" width="68.2292" height="68.2292" stroke="#EFF0F6" stroke-width="1.36458"/>
<rect x="750.52" y="273" width="68.2292" height="68.2292" stroke="#EFF0F6" stroke-width="1.36458"/>
<rect x="818.75" y="273" width="68.2292" height="68.2292" stroke="#EFF0F6" stroke-width="1.36458"/>
<rect x="886.98" y="273" width="68.2292" height="68.2292" stroke="#EFF0F6" stroke-width="1.36458"/>
<rect x="955.207" y="273" width="68.2292" height="68.2292" stroke="#EFF0F6" stroke-width="1.36458"/>
<rect x="1023.44" y="273" width="68.2292" height="68.2292" stroke="#EFF0F6" stroke-width="1.36458"/>
<rect x="1091.67" y="273" width="68.2292" height="68.2292" stroke="#EFF0F6" stroke-width="1.36458"/>
<rect x="1159.89" y="273" width="68.2292" height="68.2292" stroke="#EFF0F6" stroke-width="1.36458"/>
<rect x="1228.12" y="273" width="68.2292" height="68.2292" fill="#9D9C9C" fill-opacity="0.13" stroke="#EFF0F6" stroke-width="1.36458"/>
<rect x="1296.36" y="273" width="68.2292" height="68.2292" stroke="#EFF0F6" stroke-width="1.36458"/>
<rect x="1364.58" y="273" width="68.2292" height="68.2292" stroke="#EFF0F6" stroke-width="1.36458"/>
<rect y="341" width="68.2292" height="68.2292" stroke="#EFF0F6" stroke-width="1.36458"/>
<rect x="68.2305" y="341" width="68.2292" height="68.2292" stroke="#EFF0F6" stroke-width="1.36458"/>
<rect x="136.457" y="341" width="68.2292" height="68.2292" stroke="#EFF0F6" stroke-width="1.36458"/>
<rect x="204.688" y="341" width="68.2292" height="68.2292" stroke="#EFF0F6" stroke-width="1.36458"/>
<rect x="272.918" y="341" width="68.2292" height="68.2292" stroke="#EFF0F6" stroke-width="1.36458"/>
<rect x="341.145" y="341" width="68.2292" height="68.2292" stroke="#EFF0F6" stroke-width="1.36458"/>
<rect x="409.375" y="341" width="68.2292" height="68.2292" stroke="#EFF0F6" stroke-width="1.36458"/>
<rect x="477.605" y="341" width="68.2292" height="68.2292" stroke="#EFF0F6" stroke-width="1.36458"/>
<rect x="545.832" y="341" width="68.2292" height="68.2292" stroke="#EFF0F6" stroke-width="1.36458"/>
<rect x="614.062" y="341" width="68.2292" height="68.2292" stroke="#EFF0F6" stroke-width="1.36458"/>
<rect x="682.293" y="341" width="68.2292" height="68.2292" stroke="#EFF0F6" stroke-width="1.36458"/>
<rect x="750.52" y="341" width="68.2292" height="68.2292" stroke="#EFF0F6" stroke-width="1.36458"/>
<rect x="818.75" y="341" width="68.2292" height="68.2292" stroke="#EFF0F6" stroke-width="1.36458"/>
<rect x="886.98" y="341" width="68.2292" height="68.2292" stroke="#EFF0F6" stroke-width="1.36458"/>
<rect x="955.207" y="341" width="68.2292" height="68.2292" stroke="#EFF0F6" stroke-width="1.36458"/>
<rect x="1023.44" y="341" width="68.2292" height="68.2292" stroke="#EFF0F6" stroke-width="1.36458"/>
<rect x="1091.67" y="341" width="68.2292" height="68.2292" stroke="#EFF0F6" stroke-width="1.36458"/>
<rect x="1159.89" y="341" width="68.2292" height="68.2292" stroke="#EFF0F6" stroke-width="1.36458"/>
<rect x="1228.12" y="341" width="68.2292" height="68.2292" stroke="#EFF0F6" stroke-width="1.36458"/>
<rect x="1296.36" y="341" width="68.2292" height="68.2292" stroke="#EFF0F6" stroke-width="1.36458"/>
<rect x="1364.58" y="341" width="68.2292" height="68.2292" stroke="#EFF0F6" stroke-width="1.36458"/>
<rect y="410" width="68.2292" height="68.2292" stroke="#EFF0F6" stroke-width="1.36458"/>
<rect x="68.2305" y="410" width="68.2292" height="68.2292" stroke="#EFF0F6" stroke-width="1.36458"/>
<rect x="136.457" y="410" width="68.2292" height="68.2292" stroke="#EFF0F6" stroke-width="1.36458"/>
<rect x="204.688" y="410" width="68.2292" height="68.2292" stroke="#EFF0F6" stroke-width="1.36458"/>
<rect x="272.918" y="410" width="68.2292" height="68.2292" stroke="#EFF0F6" stroke-width="1.36458"/>
<rect x="341.145" y="410" width="68.2292" height="68.2292" stroke="#EFF0F6" stroke-width="1.36458"/>
<rect x="409.375" y="410" width="68.2292" height="68.2292" stroke="#EFF0F6" stroke-width="1.36458"/>
<rect x="477.605" y="410" width="68.2292" height="68.2292" stroke="#EFF0F6" stroke-width="1.36458"/>
<rect x="545.832" y="410" width="68.2292" height="68.2292" fill="#9D9C9C" fill-opacity="0.13" stroke="#EFF0F6" stroke-width="1.36458"/>
<rect x="614.062" y="410" width="68.2292" height="68.2292" stroke="#EFF0F6" stroke-width="1.36458"/>
<rect x="682.293" y="410" width="68.2292" height="68.2292" stroke="#EFF0F6" stroke-width="1.36458"/>
<rect x="750.52" y="410" width="68.2292" height="68.2292" stroke="#EFF0F6" stroke-width="1.36458"/>
<rect x="818.75" y="410" width="68.2292" height="68.2292" stroke="#EFF0F6" stroke-width="1.36458"/>
<rect x="886.98" y="410" width="68.2292" height="68.2292" stroke="#EFF0F6" stroke-width="1.36458"/>
<rect x="955.207" y="410" width="68.2292" height="68.2292" stroke="#EFF0F6" stroke-width="1.36458"/>
<rect x="1023.44" y="410" width="68.2292" height="68.2292" stroke="#EFF0F6" stroke-width="1.36458"/>
<rect x="1091.67" y="410" width="68.2292" height="68.2292" stroke="#EFF0F6" stroke-width="1.36458"/>
<rect x="1159.89" y="410" width="68.2292" height="68.2292" stroke="#EFF0F6" stroke-width="1.36458"/>
<rect x="1228.12" y="410" width="68.2292" height="68.2292" stroke="#EFF0F6" stroke-width="1.36458"/>
<rect x="1296.36" y="410" width="68.2292" height="68.2292" stroke="#EFF0F6" stroke-width="1.36458"/>
<rect x="1364.58" y="410" width="68.2292" height="68.2292" stroke="#EFF0F6" stroke-width="1.36458"/>
<rect y="478" width="68.2292" height="68.2292" stroke="#EFF0F6" stroke-width="1.36458"/>
<rect x="68.2305" y="478" width="68.2292" height="68.2292" stroke="#EFF0F6" stroke-width="1.36458"/>
<rect x="136.457" y="478" width="68.2292" height="68.2292" stroke="#EFF0F6" stroke-width="1.36458"/>
<rect x="204.688" y="478" width="68.2292" height="68.2292" stroke="#EFF0F6" stroke-width="1.36458"/>
<rect x="272.918" y="478" width="68.2292" height="68.2292" fill="#9D9C9C" fill-opacity="0.13" stroke="#EFF0F6" stroke-width="1.36458"/>
<rect x="341.145" y="478" width="68.2292" height="68.2292" stroke="#EFF0F6" stroke-width="1.36458"/>
<rect x="409.375" y="478" width="68.2292" height="68.2292" stroke="#EFF0F6" stroke-width="1.36458"/>
<rect x="477.605" y="478" width="68.2292" height="68.2292" stroke="#EFF0F6" stroke-width="1.36458"/>
<rect x="545.832" y="478" width="68.2292" height="68.2292" stroke="#EFF0F6" stroke-width="1.36458"/>
<rect x="614.062" y="478" width="68.2292" height="68.2292" stroke="#EFF0F6" stroke-width="1.36458"/>
<rect x="682.293" y="478" width="68.2292" height="68.2292" stroke="#EFF0F6" stroke-width="1.36458"/>
<rect x="750.52" y="478" width="68.2292" height="68.2292" stroke="#EFF0F6" stroke-width="1.36458"/>
<rect x="818.75" y="478" width="68.2292" height="68.2292" stroke="#EFF0F6" stroke-width="1.36458"/>
<rect x="886.98" y="478" width="68.2292" height="68.2292" stroke="#EFF0F6" stroke-width="1.36458"/>
<rect x="955.207" y="478" width="68.2292" height="68.2292" stroke="#EFF0F6" stroke-width="1.36458"/>
<rect x="1023.44" y="478" width="68.2292" height="68.2292" stroke="#EFF0F6" stroke-width="1.36458"/>
<rect x="1091.67" y="478" width="68.2292" height="68.2292" stroke="#EFF0F6" stroke-width="1.36458"/>
<rect x="1159.89" y="478" width="68.2292" height="68.2292" stroke="#EFF0F6" stroke-width="1.36458"/>
<rect x="1228.12" y="478" width="68.2292" height="68.2292" stroke="#EFF0F6" stroke-width="1.36458"/>
<rect x="1296.36" y="478" width="68.2292" height="68.2292" stroke="#EFF0F6" stroke-width="1.36458"/>
<rect x="1364.58" y="478" width="68.2292" height="68.2292" stroke="#EFF0F6" stroke-width="1.36458"/>
<rect y="546" width="68.2292" height="68.2292" stroke="#EFF0F6" stroke-width="1.36458"/>
<rect x="68.2305" y="546" width="68.2292" height="68.2292" stroke="#EFF0F6" stroke-width="1.36458"/>
<rect x="136.457" y="546" width="68.2292" height="68.2292" stroke="#EFF0F6" stroke-width="1.36458"/>
<rect x="204.688" y="546" width="68.2292" height="68.2292" stroke="#EFF0F6" stroke-width="1.36458"/>
<rect x="272.918" y="546" width="68.2292" height="68.2292" stroke="#EFF0F6" stroke-width="1.36458"/>
<rect x="341.145" y="546" width="68.2292" height="68.2292" stroke="#EFF0F6" stroke-width="1.36458"/>
<rect x="409.375" y="546" width="68.2292" height="68.2292" stroke="#EFF0F6" stroke-width="1.36458"/>
<rect x="477.605" y="546" width="68.2292" height="68.2292" stroke="#EFF0F6" stroke-width="1.36458"/>
<rect x="545.832" y="546" width="68.2292" height="68.2292" stroke="#EFF0F6" stroke-width="1.36458"/>
<rect x="614.062" y="546" width="68.2292" height="68.2292" stroke="#EFF0F6" stroke-width="1.36458"/>
<rect x="682.293" y="546" width="68.2292" height="68.2292" stroke="#EFF0F6" stroke-width="1.36458"/>
<rect x="750.52" y="546" width="68.2292" height="68.2292" stroke="#EFF0F6" stroke-width="1.36458"/>
<rect x="818.75" y="546" width="68.2292" height="68.2292" stroke="#EFF0F6" stroke-width="1.36458"/>
<rect x="886.98" y="546" width="68.2292" height="68.2292" stroke="#EFF0F6" stroke-width="1.36458"/>
<rect x="955.207" y="546" width="68.2292" height="68.2292" stroke="#EFF0F6" stroke-width="1.36458"/>
<rect x="1023.44" y="546" width="68.2292" height="68.2292" stroke="#EFF0F6" stroke-width="1.36458"/>
<rect x="1091.67" y="546" width="68.2292" height="68.2292" stroke="#EFF0F6" stroke-width="1.36458"/>
<rect x="1159.89" y="546" width="68.2292" height="68.2292" stroke="#EFF0F6" stroke-width="1.36458"/>
<rect x="1228.12" y="546" width="68.2292" height="68.2292" stroke="#EFF0F6" stroke-width="1.36458"/>
<rect x="1296.36" y="546" width="68.2292" height="68.2292" stroke="#EFF0F6" stroke-width="1.36458"/>
<rect x="1364.58" y="546" width="68.2292" height="68.2292" stroke="#EFF0F6" stroke-width="1.36458"/>
<rect y="614" width="68.2292" height="68.2292" stroke="#EFF0F6" stroke-width="1.36458"/>
<rect x="68.2305" y="614" width="68.2292" height="68.2292" stroke="#EFF0F6" stroke-width="1.36458"/>
<rect x="136.457" y="614" width="68.2292" height="68.2292" stroke="#EFF0F6" stroke-width="1.36458"/>
<rect x="204.688" y="614" width="68.2292" height="68.2292" stroke="#EFF0F6" stroke-width="1.36458"/>
<rect x="272.918" y="614" width="68.2292" height="68.2292" stroke="#EFF0F6" stroke-width="1.36458"/>
<rect x="341.145" y="614" width="68.2292" height="68.2292" stroke="#EFF0F6" stroke-width="1.36458"/>
<rect x="409.375" y="614" width="68.2292" height="68.2292" stroke="#EFF0F6" stroke-width="1.36458"/>
<rect x="477.605" y="614" width="68.2292" height="68.2292" stroke="#EFF0F6" stroke-width="1.36458"/>
<rect x="545.832" y="614" width="68.2292" height="68.2292" stroke="#EFF0F6" stroke-width="1.36458"/>
<rect x="614.062" y="614" width="68.2292" height="68.2292" stroke="#EFF0F6" stroke-width="1.36458"/>
<rect x="682.293" y="614" width="68.2292" height="68.2292" stroke="#EFF0F6" stroke-width="1.36458"/>
<rect x="750.52" y="614" width="68.2292" height="68.2292" stroke="#EFF0F6" stroke-width="1.36458"/>
<rect x="818.75" y="614" width="68.2292" height="68.2292" stroke="#EFF0F6" stroke-width="1.36458"/>
<rect x="886.98" y="614" width="68.2292" height="68.2292" stroke="#EFF0F6" stroke-width="1.36458"/>
<rect x="955.207" y="614" width="68.2292" height="68.2292" stroke="#EFF0F6" stroke-width="1.36458"/>
<rect x="1023.44" y="614" width="68.2292" height="68.2292" stroke="#EFF0F6" stroke-width="1.36458"/>
<rect x="1091.67" y="614" width="68.2292" height="68.2292" stroke="#EFF0F6" stroke-width="1.36458"/>
<rect x="1159.89" y="614" width="68.2292" height="68.2292" stroke="#EFF0F6" stroke-width="1.36458"/>
<rect x="1228.12" y="614" width="68.2292" height="68.2292" stroke="#EFF0F6" stroke-width="1.36458"/>
<rect x="1296.36" y="614" width="68.2292" height="68.2292" stroke="#EFF0F6" stroke-width="1.36458"/>
<rect x="1364.58" y="614" width="68.2292" height="68.2292" stroke="#EFF0F6" stroke-width="1.36458"/>
<rect y="683" width="68.2292" height="68.2292" stroke="#EFF0F6" stroke-width="1.36458"/>
<rect x="68.2305" y="683" width="68.2292" height="68.2292" stroke="#EFF0F6" stroke-width="1.36458"/>
<rect x="136.457" y="683" width="68.2292" height="68.2292" stroke="#EFF0F6" stroke-width="1.36458"/>
<rect x="204.688" y="683" width="68.2292" height="68.2292" stroke="#EFF0F6" stroke-width="1.36458"/>
<rect x="272.918" y="683" width="68.2292" height="68.2292" stroke="#EFF0F6" stroke-width="1.36458"/>
<rect x="341.145" y="683" width="68.2292" height="68.2292" stroke="#EFF0F6" stroke-width="1.36458"/>
<rect x="409.375" y="683" width="68.2292" height="68.2292" stroke="#EFF0F6" stroke-width="1.36458"/>
<rect x="477.605" y="683" width="68.2292" height="68.2292" stroke="#EFF0F6" stroke-width="1.36458"/>
<rect x="545.832" y="683" width="68.2292" height="68.2292" stroke="#EFF0F6" stroke-width="1.36458"/>
<rect x="614.062" y="683" width="68.2292" height="68.2292" stroke="#EFF0F6" stroke-width="1.36458"/>
<rect x="682.293" y="683" width="68.2292" height="68.2292" stroke="#EFF0F6" stroke-width="1.36458"/>
<rect x="750.52" y="683" width="68.2292" height="68.2292" stroke="#EFF0F6" stroke-width="1.36458"/>
<rect x="818.75" y="683" width="68.2292" height="68.2292" stroke="#EFF0F6" stroke-width="1.36458"/>
<rect x="886.98" y="683" width="68.2292" height="68.2292" stroke="#EFF0F6" stroke-width="1.36458"/>
<rect x="955.207" y="683" width="68.2292" height="68.2292" stroke="#EFF0F6" stroke-width="1.36458"/>
<rect x="1023.44" y="683" width="68.2292" height="68.2292" stroke="#EFF0F6" stroke-width="1.36458"/>
<rect x="1091.67" y="683" width="68.2292" height="68.2292" stroke="#EFF0F6" stroke-width="1.36458"/>
<rect x="1159.89" y="683" width="68.2292" height="68.2292" stroke="#EFF0F6" stroke-width="1.36458"/>
<rect x="1228.12" y="683" width="68.2292" height="68.2292" stroke="#EFF0F6" stroke-width="1.36458"/>
<rect x="1296.36" y="683" width="68.2292" height="68.2292" stroke="#EFF0F6" stroke-width="1.36458"/>
<rect x="1364.58" y="683" width="68.2292" height="68.2292" stroke="#EFF0F6" stroke-width="1.36458"/>
<rect y="751" width="68.2292" height="68.2292" stroke="#EFF0F6" stroke-width="1.36458"/>
<rect x="68.2305" y="751" width="68.2292" height="68.2292" stroke="#EFF0F6" stroke-width="1.36458"/>
<rect x="136.457" y="751" width="68.2292" height="68.2292" stroke="#EFF0F6" stroke-width="1.36458"/>
<rect x="204.688" y="751" width="68.2292" height="68.2292" stroke="#EFF0F6" stroke-width="1.36458"/>
<rect x="272.918" y="751" width="68.2292" height="68.2292" stroke="#EFF0F6" stroke-width="1.36458"/>
<rect x="341.145" y="751" width="68.2292" height="68.2292" stroke="#EFF0F6" stroke-width="1.36458"/>
<rect x="409.375" y="751" width="68.2292" height="68.2292" stroke="#EFF0F6" stroke-width="1.36458"/>
<rect x="477.605" y="751" width="68.2292" height="68.2292" stroke="#EFF0F6" stroke-width="1.36458"/>
<rect x="545.832" y="751" width="68.2292" height="68.2292" stroke="#EFF0F6" stroke-width="1.36458"/>
<rect x="614.062" y="751" width="68.2292" height="68.2292" stroke="#EFF0F6" stroke-width="1.36458"/>
<rect x="682.293" y="751" width="68.2292" height="68.2292" stroke="#EFF0F6" stroke-width="1.36458"/>
<rect x="750.52" y="751" width="68.2292" height="68.2292" stroke="#EFF0F6" stroke-width="1.36458"/>
<rect x="818.75" y="751" width="68.2292" height="68.2292" stroke="#EFF0F6" stroke-width="1.36458"/>
<rect x="886.98" y="751" width="68.2292" height="68.2292" stroke="#EFF0F6" stroke-width="1.36458"/>
<rect x="955.207" y="751" width="68.2292" height="68.2292" stroke="#EFF0F6" stroke-width="1.36458"/>
<rect x="1023.44" y="751" width="68.2292" height="68.2292" stroke="#EFF0F6" stroke-width="1.36458"/>
<rect x="1091.67" y="751" width="68.2292" height="68.2292" stroke="#EFF0F6" stroke-width="1.36458"/>
<rect x="1159.89" y="751" width="68.2292" height="68.2292" stroke="#EFF0F6" stroke-width="1.36458"/>
<rect x="1228.12" y="751" width="68.2292" height="68.2292" stroke="#EFF0F6" stroke-width="1.36458"/>
<rect x="1296.36" y="751" width="68.2292" height="68.2292" stroke="#EFF0F6" stroke-width="1.36458"/>
<rect x="1364.58" y="751" width="68.2292" height="68.2292" stroke="#EFF0F6" stroke-width="1.36458"/>
</g>
<defs>
<clipPath id="clip0_4142_1056">
<rect width="1439" height="944" fill="white"/>
</clipPath>
</defs>
</svg>
