<svg width="27" height="27" viewBox="0 0 27 27" fill="none" xmlns="http://www.w3.org/2000/svg">
<g id="Group">
<g id="Vector">
<mask id="path-1-inside-1_11970_869" fill="white">
<path fill-rule="evenodd" clip-rule="evenodd" d="M20.4147 5.4075L20.3472 5.355C20.2174 4.3695 19.7457 3.34275 19.0092 2.47725C17.8129 1.071 15.8629 0 13.2529 0C10.6804 0 8.86769 1.173 7.79819 2.62725C7.29902 3.29981 6.94248 4.06725 6.75044 4.8825C6.71557 5.03517 6.68754 5.18932 6.66644 5.3445L6.58544 5.40675C5.74244 6.06 5.12369 6.852 5.27069 7.76025C5.41169 8.63775 6.20519 9.17175 6.94319 9.498C7.13119 9.581 7.33294 9.659 7.54844 9.732C7.44001 10.5775 7.51295 11.4363 7.76243 12.2514C8.0119 13.0664 8.43218 13.819 8.99526 14.4589C9.55835 15.0988 10.2513 15.6114 11.028 15.9625C11.8047 16.3137 12.6473 16.4953 13.4997 16.4953C14.3521 16.4953 15.1947 16.3137 15.9714 15.9625C16.7481 15.6114 17.441 15.0988 18.0041 14.4589C18.5672 13.819 18.9875 13.0664 19.237 12.2514C19.4864 11.4363 19.5594 10.5775 19.4509 9.732C19.6664 9.6595 19.8682 9.5815 20.0562 9.498C20.7942 9.17175 21.5869 8.63775 21.7287 7.76025C21.8757 6.852 21.2569 6.06 20.4139 5.40675M8.20844 6.50325C8.11094 6.22275 8.08544 5.772 8.21219 5.21475C8.33669 4.671 8.59469 4.07475 8.99969 3.52275V5.625C8.99969 5.82391 9.07871 6.01468 9.21936 6.15533C9.36001 6.29598 9.55078 6.375 9.74969 6.375C9.94861 6.375 10.1394 6.29598 10.28 6.15533C10.4207 6.01468 10.4997 5.82391 10.4997 5.625V2.1825C11.1169 1.8315 11.8632 1.58625 12.7497 1.51875V4.125C12.7497 4.32391 12.8287 4.51468 12.9694 4.65533C13.11 4.79598 13.3008 4.875 13.4997 4.875C13.6986 4.875 13.8894 4.79598 14.03 4.65533C14.1707 4.51468 14.2497 4.32391 14.2497 4.125V1.56525C15.0417 1.665 15.8063 1.91985 16.4997 2.31525V5.625C16.4997 5.82391 16.5787 6.01468 16.7194 6.15533C16.86 6.29598 17.0508 6.375 17.2497 6.375C17.4486 6.375 17.6394 6.29598 17.78 6.15533C17.9207 6.01468 17.9997 5.82391 17.9997 5.625V3.6135C18.8284 4.6755 19.0227 5.8215 18.7894 6.50925C18.7317 6.67947 18.7369 6.86478 18.8043 7.03143C18.8717 7.19809 18.9967 7.335 19.1565 7.41724C19.3164 7.49948 19.5004 7.52157 19.6752 7.4795C19.85 7.43742 20.0038 7.33398 20.1087 7.188C20.2564 7.39425 20.2512 7.50375 20.2482 7.521C20.2384 7.581 20.1237 7.8285 19.4494 8.127C19.1569 8.256 18.8089 8.37225 18.4182 8.475L18.4002 8.4795C17.9764 8.589 17.5047 8.682 16.9999 8.7585C16.0638 8.89339 15.1203 8.97104 14.1747 8.991C13.5247 9.00748 12.8742 9.00048 12.2247 8.97C11.4776 8.93614 10.7327 8.86505 9.99269 8.757C9.52364 8.68903 9.0585 8.5964 8.59919 8.4795L8.58119 8.475C8.22864 8.38695 7.88376 8.27057 7.54994 8.127C6.87569 7.8285 6.76094 7.581 6.75119 7.521C6.74819 7.50375 6.74294 7.39425 6.89069 7.188C6.99577 7.33464 7.15018 7.43849 7.32561 7.48052C7.50104 7.52254 7.68575 7.49993 7.84586 7.41682C8.00597 7.33371 8.13077 7.19568 8.19736 7.02802C8.26396 6.86036 8.26789 6.67432 8.20844 6.504M9.01619 10.1108C9.26569 10.1593 9.52269 10.2035 9.78719 10.2435C10.5882 10.3635 11.4507 10.44 12.3282 10.476C13.1104 10.5082 13.8935 10.5082 14.6757 10.476C15.5487 10.44 16.4082 10.3635 17.2054 10.2435C17.4724 10.2045 17.7317 10.1603 17.9832 10.1108C18.0365 10.7319 17.9602 11.3573 17.7591 11.9474C17.558 12.5374 17.2365 13.0793 16.815 13.5386C16.3935 13.9979 15.8811 14.3645 15.3104 14.6154C14.7397 14.8662 14.1231 14.9958 13.4997 14.9958C12.8763 14.9958 12.2597 14.8662 11.689 14.6154C11.1183 14.3645 10.6059 13.9979 10.1844 13.5386C9.76285 13.0793 9.44135 12.5374 9.24025 11.9474C9.03916 11.3573 8.96286 10.7319 9.01619 10.1108Z"/>
</mask>
<path fill-rule="evenodd" clip-rule="evenodd" d="M20.4147 5.4075L20.3472 5.355C20.2174 4.3695 19.7457 3.34275 19.0092 2.47725C17.8129 1.071 15.8629 0 13.2529 0C10.6804 0 8.86769 1.173 7.79819 2.62725C7.29902 3.29981 6.94248 4.06725 6.75044 4.8825C6.71557 5.03517 6.68754 5.18932 6.66644 5.3445L6.58544 5.40675C5.74244 6.06 5.12369 6.852 5.27069 7.76025C5.41169 8.63775 6.20519 9.17175 6.94319 9.498C7.13119 9.581 7.33294 9.659 7.54844 9.732C7.44001 10.5775 7.51295 11.4363 7.76243 12.2514C8.0119 13.0664 8.43218 13.819 8.99526 14.4589C9.55835 15.0988 10.2513 15.6114 11.028 15.9625C11.8047 16.3137 12.6473 16.4953 13.4997 16.4953C14.3521 16.4953 15.1947 16.3137 15.9714 15.9625C16.7481 15.6114 17.441 15.0988 18.0041 14.4589C18.5672 13.819 18.9875 13.0664 19.237 12.2514C19.4864 11.4363 19.5594 10.5775 19.4509 9.732C19.6664 9.6595 19.8682 9.5815 20.0562 9.498C20.7942 9.17175 21.5869 8.63775 21.7287 7.76025C21.8757 6.852 21.2569 6.06 20.4139 5.40675M8.20844 6.50325C8.11094 6.22275 8.08544 5.772 8.21219 5.21475C8.33669 4.671 8.59469 4.07475 8.99969 3.52275V5.625C8.99969 5.82391 9.07871 6.01468 9.21936 6.15533C9.36001 6.29598 9.55078 6.375 9.74969 6.375C9.94861 6.375 10.1394 6.29598 10.28 6.15533C10.4207 6.01468 10.4997 5.82391 10.4997 5.625V2.1825C11.1169 1.8315 11.8632 1.58625 12.7497 1.51875V4.125C12.7497 4.32391 12.8287 4.51468 12.9694 4.65533C13.11 4.79598 13.3008 4.875 13.4997 4.875C13.6986 4.875 13.8894 4.79598 14.03 4.65533C14.1707 4.51468 14.2497 4.32391 14.2497 4.125V1.56525C15.0417 1.665 15.8063 1.91985 16.4997 2.31525V5.625C16.4997 5.82391 16.5787 6.01468 16.7194 6.15533C16.86 6.29598 17.0508 6.375 17.2497 6.375C17.4486 6.375 17.6394 6.29598 17.78 6.15533C17.9207 6.01468 17.9997 5.82391 17.9997 5.625V3.6135C18.8284 4.6755 19.0227 5.8215 18.7894 6.50925C18.7317 6.67947 18.7369 6.86478 18.8043 7.03143C18.8717 7.19809 18.9967 7.335 19.1565 7.41724C19.3164 7.49948 19.5004 7.52157 19.6752 7.4795C19.85 7.43742 20.0038 7.33398 20.1087 7.188C20.2564 7.39425 20.2512 7.50375 20.2482 7.521C20.2384 7.581 20.1237 7.8285 19.4494 8.127C19.1569 8.256 18.8089 8.37225 18.4182 8.475L18.4002 8.4795C17.9764 8.589 17.5047 8.682 16.9999 8.7585C16.0638 8.89339 15.1203 8.97104 14.1747 8.991C13.5247 9.00748 12.8742 9.00048 12.2247 8.97C11.4776 8.93614 10.7327 8.86505 9.99269 8.757C9.52364 8.68903 9.0585 8.5964 8.59919 8.4795L8.58119 8.475C8.22864 8.38695 7.88376 8.27057 7.54994 8.127C6.87569 7.8285 6.76094 7.581 6.75119 7.521C6.74819 7.50375 6.74294 7.39425 6.89069 7.188C6.99577 7.33464 7.15018 7.43849 7.32561 7.48052C7.50104 7.52254 7.68575 7.49993 7.84586 7.41682C8.00597 7.33371 8.13077 7.19568 8.19736 7.02802C8.26396 6.86036 8.26789 6.67432 8.20844 6.504M9.01619 10.1108C9.26569 10.1593 9.52269 10.2035 9.78719 10.2435C10.5882 10.3635 11.4507 10.44 12.3282 10.476C13.1104 10.5082 13.8935 10.5082 14.6757 10.476C15.5487 10.44 16.4082 10.3635 17.2054 10.2435C17.4724 10.2045 17.7317 10.1603 17.9832 10.1108C18.0365 10.7319 17.9602 11.3573 17.7591 11.9474C17.558 12.5374 17.2365 13.0793 16.815 13.5386C16.3935 13.9979 15.8811 14.3645 15.3104 14.6154C14.7397 14.8662 14.1231 14.9958 13.4997 14.9958C12.8763 14.9958 12.2597 14.8662 11.689 14.6154C11.1183 14.3645 10.6059 13.9979 10.1844 13.5386C9.76285 13.0793 9.44135 12.5374 9.24025 11.9474C9.03916 11.3573 8.96286 10.7319 9.01619 10.1108Z" fill="#0B63E5"/>
<path d="M20.3472 5.355L20.248 5.36805L20.2534 5.40874L20.2858 5.43394L20.3472 5.355ZM19.0092 2.47725L18.933 2.54204L18.933 2.54206L19.0092 2.47725ZM7.79819 2.62725L7.87849 2.68685L7.87875 2.6865L7.79819 2.62725ZM6.75044 4.8825L6.6531 4.85957L6.65295 4.86023L6.75044 4.8825ZM6.66644 5.3445L6.72738 5.42379L6.75999 5.39873L6.76553 5.35797L6.66644 5.3445ZM6.58544 5.40675L6.52451 5.32746L6.52419 5.3277L6.58544 5.40675ZM5.27069 7.76025L5.36943 7.74439L5.36941 7.74427L5.27069 7.76025ZM6.94319 9.498L6.90276 9.58946L6.9028 9.58948L6.94319 9.498ZM7.54844 9.732L7.64763 9.74472L7.65804 9.66354L7.58053 9.63729L7.54844 9.732ZM19.4509 9.732L19.4191 9.63722L19.3413 9.66337L19.3518 9.74472L19.4509 9.732ZM20.0562 9.498L20.0158 9.40654L20.0156 9.40661L20.0562 9.498ZM21.7287 7.76025L21.63 7.74427L21.63 7.7443L21.7287 7.76025ZM8.21219 5.21475L8.11471 5.19243L8.11468 5.19257L8.21219 5.21475ZM8.99969 3.52275H9.09969V3.21741L8.91907 3.46359L8.99969 3.52275ZM10.4997 2.1825L10.4503 2.09557L10.3997 2.12433V2.1825H10.4997ZM12.7497 1.51875H12.8497V1.41085L12.7421 1.41904L12.7497 1.51875ZM14.2497 1.56525L14.2622 1.46603L14.1497 1.45187V1.56525H14.2497ZM16.4997 2.31525H16.5997V2.25716L16.5492 2.22838L16.4997 2.31525ZM17.9997 3.6135L18.0785 3.55198L17.8997 3.32281V3.6135H17.9997ZM18.7894 6.50925L18.8841 6.54139L18.8841 6.54137L18.7894 6.50925ZM20.1087 7.188L20.19 7.12976L20.1088 7.01646L20.0275 7.12964L20.1087 7.188ZM20.2482 7.521L20.1497 7.50386L20.1495 7.50496L20.2482 7.521ZM19.4494 8.127L19.4898 8.2185L19.4899 8.21844L19.4494 8.127ZM18.4182 8.475L18.4425 8.57202L18.4436 8.57171L18.4182 8.475ZM18.4002 8.4795L18.3759 8.38248L18.3752 8.38268L18.4002 8.4795ZM16.9999 8.7585L17.0142 8.85748L17.0149 8.85737L16.9999 8.7585ZM14.1747 8.991L14.1726 8.89102L14.1722 8.89103L14.1747 8.991ZM12.2247 8.97L12.2294 8.87011L12.2292 8.8701L12.2247 8.97ZM9.99269 8.757L10.0071 8.65805L10.007 8.65803L9.99269 8.757ZM8.59919 8.4795L8.62386 8.38259L8.62345 8.38249L8.59919 8.4795ZM8.58119 8.475L8.60545 8.37799L8.60542 8.37798L8.58119 8.475ZM7.54994 8.127L7.50946 8.21845L7.51043 8.21886L7.54994 8.127ZM6.75119 7.521L6.8499 7.50496L6.84971 7.50387L6.75119 7.521ZM6.89069 7.188L6.97198 7.12975L6.89068 7.0163L6.8094 7.12976L6.89069 7.188ZM9.01619 10.1108L9.03527 10.0126L8.92608 9.99136L8.91656 10.1022L9.01619 10.1108ZM9.78719 10.2435L9.77224 10.3424L9.77238 10.3424L9.78719 10.2435ZM12.3282 10.476L12.3323 10.3761L12.3323 10.3761L12.3282 10.476ZM14.6757 10.476L14.6798 10.5759L14.6798 10.5759L14.6757 10.476ZM17.2054 10.2435L17.191 10.1445L17.1906 10.1446L17.2054 10.2435ZM17.9832 10.1108L18.0828 10.1022L18.0733 9.9911L17.9639 10.0126L17.9832 10.1108ZM20.4761 5.32856L20.4086 5.27606L20.2858 5.43394L20.3533 5.48644L20.4761 5.32856ZM20.4463 5.34195C20.3138 4.33519 19.8329 3.29087 19.0854 2.41244L18.933 2.54206C19.6585 3.39463 20.1211 4.40381 20.248 5.36805L20.4463 5.34195ZM19.0854 2.41246C17.87 0.983708 15.8921 -0.1 13.2529 -0.1V0.1C15.8338 0.1 17.7559 1.15829 18.933 2.54204L19.0854 2.41246ZM13.2529 -0.1C10.6467 -0.1 8.80477 1.08977 7.71763 2.568L7.87875 2.6865C8.93062 1.25623 10.7142 0.1 13.2529 0.1V-0.1ZM7.71789 2.56765C7.2106 3.25115 6.84826 4.03106 6.65311 4.85957L6.84778 4.90543C7.03669 4.10343 7.38743 3.34847 7.87849 2.68685L7.71789 2.56765ZM6.65295 4.86023C6.61741 5.01581 6.58885 5.1729 6.56735 5.33103L6.76553 5.35797C6.78622 5.20575 6.81372 5.05453 6.84793 4.90477L6.65295 4.86023ZM6.60551 5.26521L6.52451 5.32746L6.64638 5.48604L6.72738 5.42379L6.60551 5.26521ZM6.52419 5.3277C5.67684 5.98433 5.01544 6.80905 5.17198 7.77623L5.36941 7.74427C5.23195 6.89495 5.80805 6.13567 6.6467 5.48579L6.52419 5.3277ZM5.17196 7.77611C5.32176 8.70838 6.16084 9.26148 6.90276 9.58946L6.98363 9.40654C6.24955 9.08202 5.50163 8.56712 5.36943 7.74439L5.17196 7.77611ZM6.9028 9.58948C7.09379 9.6738 7.29834 9.75286 7.51636 9.82671L7.58053 9.63729C7.36755 9.56514 7.16859 9.4882 6.98358 9.40652L6.9028 9.58948ZM7.44925 9.71928C7.33901 10.5788 7.41317 11.452 7.66681 12.2806L7.85805 12.2221C7.61273 11.4206 7.541 10.5761 7.64763 9.74472L7.44925 9.71928ZM7.66681 12.2806C7.92044 13.1093 8.34772 13.8744 8.92019 14.525L9.07034 14.3928C8.51664 13.7636 8.10337 13.0236 7.85805 12.2221L7.66681 12.2806ZM8.92019 14.525C9.49266 15.1755 10.1972 15.6967 10.9868 16.0537L11.0692 15.8714C10.3055 15.5261 9.62404 15.0221 9.07034 14.3928L8.92019 14.525ZM10.9868 16.0537C11.7765 16.4107 12.6331 16.5953 13.4997 16.5953V16.3953C12.6615 16.3953 11.833 16.2167 11.0692 15.8714L10.9868 16.0537ZM13.4997 16.5953C14.3663 16.5953 15.2229 16.4107 16.0126 16.0537L15.9302 15.8714C15.1664 16.2167 14.3379 16.3953 13.4997 16.3953V16.5953ZM16.0126 16.0537C16.8022 15.6967 17.5067 15.1755 18.0792 14.525L17.929 14.3928C17.3754 15.0221 16.6939 15.5261 15.9302 15.8714L16.0126 16.0537ZM18.0792 14.525C18.6517 13.8744 19.0789 13.1093 19.3326 12.2806L19.1413 12.2221C18.896 13.0236 18.4827 13.7636 17.929 14.3928L18.0792 14.525ZM19.3326 12.2806C19.5862 11.452 19.6604 10.5788 19.5501 9.71928L19.3518 9.74472C19.4584 10.5761 19.3867 11.4206 19.1413 12.2221L19.3326 12.2806ZM19.4828 9.82678C19.701 9.75339 19.9057 9.67428 20.0968 9.58939L20.0156 9.40661C19.8307 9.48872 19.6319 9.56561 19.4191 9.63722L19.4828 9.82678ZM20.0966 9.58946C20.8386 9.26144 21.6768 8.70836 21.8274 7.7762L21.63 7.7443C21.4971 8.56714 20.7498 9.08206 20.0158 9.40654L20.0966 9.58946ZM21.8274 7.77623C21.9839 6.80905 21.3225 5.98433 20.4752 5.3277L20.3527 5.48579C21.1913 6.13567 21.7674 6.89495 21.63 7.74427L21.8274 7.77623ZM8.3029 6.47042C8.21336 6.21281 8.18569 5.78216 8.3097 5.23693L8.11468 5.19257C7.9852 5.76184 8.00853 6.23269 8.11399 6.53608L8.3029 6.47042ZM8.30967 5.23707C8.43114 4.70656 8.68343 4.12285 9.08032 3.58191L8.91907 3.46359C8.50596 4.02665 8.24225 4.63544 8.11471 5.19243L8.30967 5.23707ZM8.89969 3.52275V5.625H9.09969V3.52275H8.89969ZM8.89969 5.625C8.89969 5.85043 8.98925 6.06663 9.14865 6.22604L9.29007 6.08462C9.16817 5.96272 9.09969 5.79739 9.09969 5.625H8.89969ZM9.14865 6.22604C9.30806 6.38545 9.52426 6.475 9.74969 6.475V6.275C9.5773 6.275 9.41197 6.20652 9.29007 6.08462L9.14865 6.22604ZM9.74969 6.475C9.97513 6.475 10.1913 6.38545 10.3507 6.22604L10.2093 6.08462C10.0874 6.20652 9.92208 6.275 9.74969 6.275V6.475ZM10.3507 6.22604C10.5101 6.06663 10.5997 5.85043 10.5997 5.625H10.3997C10.3997 5.79739 10.3312 5.96272 10.2093 6.08462L10.3507 6.22604ZM10.5997 5.625V2.1825H10.3997V5.625H10.5997ZM10.5491 2.26943C11.1533 1.92586 11.8852 1.68486 12.7573 1.61846L12.7421 1.41904C11.8412 1.48764 11.0806 1.73714 10.4503 2.09557L10.5491 2.26943ZM12.6497 1.51875V4.125H12.8497V1.51875H12.6497ZM12.6497 4.125C12.6497 4.35043 12.7392 4.56663 12.8987 4.72604L13.0401 4.58462C12.9182 4.46272 12.8497 4.29739 12.8497 4.125H12.6497ZM12.8987 4.72604C13.0581 4.88545 13.2743 4.975 13.4997 4.975V4.775C13.3273 4.775 13.162 4.70652 13.0401 4.58462L12.8987 4.72604ZM13.4997 4.975C13.7251 4.975 13.9413 4.88545 14.1007 4.72604L13.9593 4.58462C13.8374 4.70652 13.6721 4.775 13.4997 4.775V4.975ZM14.1007 4.72604C14.2601 4.56663 14.3497 4.35043 14.3497 4.125H14.1497C14.1497 4.29739 14.0812 4.46272 13.9593 4.58462L14.1007 4.72604ZM14.3497 4.125V1.56525H14.1497V4.125H14.3497ZM14.2372 1.66447C15.0162 1.76257 15.7681 2.01323 16.4502 2.40212L16.5492 2.22838C15.8444 1.82648 15.0672 1.56742 14.2622 1.46603L14.2372 1.66447ZM16.3997 2.31525V5.625H16.5997V2.31525H16.3997ZM16.3997 5.625C16.3997 5.85043 16.4892 6.06663 16.6487 6.22604L16.7901 6.08462C16.6682 5.96272 16.5997 5.79739 16.5997 5.625H16.3997ZM16.6487 6.22604C16.8081 6.38545 17.0243 6.475 17.2497 6.475V6.275C17.0773 6.275 16.912 6.20652 16.7901 6.08462L16.6487 6.22604ZM17.2497 6.475C17.4751 6.475 17.6913 6.38545 17.8507 6.22604L17.7093 6.08462C17.5874 6.20652 17.4221 6.275 17.2497 6.275V6.475ZM17.8507 6.22604C18.0101 6.06663 18.0997 5.85043 18.0997 5.625H17.8997C17.8997 5.79739 17.8312 5.96272 17.7093 6.08462L17.8507 6.22604ZM18.0997 5.625V3.6135H17.8997V5.625H18.0997ZM17.9209 3.67502C18.7359 4.7195 18.914 5.83078 18.6947 6.47713L18.8841 6.54137C19.1314 5.81222 18.921 4.6315 18.0785 3.55198L17.9209 3.67502ZM18.6947 6.47711C18.6293 6.67002 18.6352 6.88004 18.7116 7.06891L18.897 6.99395C18.8386 6.84952 18.8341 6.68892 18.8841 6.54139L18.6947 6.47711ZM18.7116 7.06891C18.788 7.25779 18.9296 7.41296 19.1108 7.50616L19.2023 7.32832C19.0637 7.25704 18.9554 7.13839 18.897 6.99395L18.7116 7.06891ZM19.1108 7.50616C19.2919 7.59936 19.5005 7.6244 19.6986 7.57672L19.6518 7.38227C19.5003 7.41874 19.3408 7.39959 19.2023 7.32832L19.1108 7.50616ZM19.6986 7.57672C19.8967 7.52903 20.071 7.4118 20.1899 7.24636L20.0275 7.12964C19.9366 7.25616 19.8032 7.34581 19.6518 7.38227L19.6986 7.57672ZM20.0274 7.24624C20.1659 7.43957 20.1465 7.52214 20.1497 7.50387L20.3467 7.53813C20.3559 7.48535 20.347 7.34893 20.19 7.12976L20.0274 7.24624ZM20.1495 7.50496C20.1495 7.50461 20.1354 7.56275 20.0297 7.66149C19.926 7.75839 19.7392 7.88935 19.409 8.03556L19.4899 8.21844C19.8339 8.06615 20.0416 7.92411 20.1663 7.80763C20.289 7.693 20.3371 7.59739 20.3469 7.53704L20.1495 7.50496ZM19.4091 8.0355C19.1227 8.1618 18.78 8.27646 18.3928 8.37829L18.4436 8.57171C18.8379 8.46804 19.1912 8.35021 19.4898 8.2185L19.4091 8.0355ZM18.3939 8.37799L18.3759 8.38249L18.4245 8.57651L18.4424 8.57201L18.3939 8.37799ZM18.3752 8.38268C17.9554 8.49115 17.4871 8.58353 16.985 8.65963L17.0149 8.85737C17.5223 8.78047 17.9975 8.68685 18.4252 8.57632L18.3752 8.38268ZM16.9857 8.65952C16.0536 8.79384 15.1141 8.87115 14.1726 8.89102L14.1768 9.09098C15.1265 9.07093 16.074 8.99295 17.0142 8.85748L16.9857 8.65952ZM14.1722 8.89103C13.5245 8.90746 12.8765 8.90048 12.2294 8.87011L12.22 9.06989C12.8719 9.10048 13.5248 9.10751 14.1772 9.09097L14.1722 8.89103ZM12.2292 8.8701C11.4855 8.83639 10.7438 8.76562 10.0071 8.65805L9.97824 8.85595C10.7215 8.96448 11.4698 9.03588 12.2202 9.0699L12.2292 8.8701ZM10.007 8.65803C9.54146 8.59056 9.07976 8.49862 8.62386 8.38259L8.57453 8.57641C9.03724 8.69417 9.50583 8.78749 9.97835 8.85597L10.007 8.65803ZM8.62345 8.38249L8.60545 8.37799L8.55694 8.57201L8.57494 8.57651L8.62345 8.38249ZM8.60542 8.37798C8.25809 8.29123 7.91833 8.17658 7.58945 8.03514L7.51043 8.21886C7.8492 8.36456 8.19918 8.48266 8.55696 8.57202L8.60542 8.37798ZM7.59042 8.03556C7.26017 7.88935 7.07336 7.75839 6.96965 7.66149C6.86397 7.56275 6.84984 7.50461 6.8499 7.50496L6.65249 7.53704C6.66229 7.59739 6.71042 7.693 6.83311 7.80763C6.95778 7.92411 7.16547 8.06615 7.50946 8.21844L7.59042 8.03556ZM6.84971 7.50387C6.85289 7.52214 6.83349 7.43957 6.97199 7.24624L6.8094 7.12976C6.6524 7.34893 6.64349 7.48536 6.65267 7.53813L6.84971 7.50387ZM6.80941 7.24625C6.92849 7.41244 7.10349 7.53013 7.30231 7.57776L7.34891 7.38327C7.19686 7.34684 7.06304 7.25684 6.97198 7.12975L6.80941 7.24625ZM7.30231 7.57776C7.50114 7.6254 7.71047 7.59977 7.89193 7.50558L7.79979 7.32806C7.66103 7.40009 7.50095 7.41969 7.34891 7.38327L7.30231 7.57776ZM7.89193 7.50558C8.07339 7.41139 8.21482 7.25494 8.2903 7.06493L8.10443 6.9911C8.04671 7.13641 7.93856 7.25604 7.79979 7.32806L7.89193 7.50558ZM8.2903 7.06493C8.36577 6.87492 8.37023 6.66408 8.30286 6.47105L8.11403 6.53695C8.16555 6.68457 8.16214 6.8458 8.10443 6.9911L8.2903 7.06493ZM8.99711 10.2089C9.24805 10.2577 9.50643 10.3022 9.77224 10.3424L9.80215 10.1446C9.53896 10.1048 9.28333 10.0608 9.03527 10.0126L8.99711 10.2089ZM9.77238 10.3424C10.5775 10.463 11.4436 10.5398 12.3241 10.5759L12.3323 10.3761C11.4578 10.3402 10.5989 10.264 9.80201 10.1446L9.77238 10.3424ZM12.3241 10.5759C13.109 10.6083 13.8949 10.6083 14.6798 10.5759L14.6716 10.3761C13.8922 10.4082 13.1117 10.4082 12.3323 10.3761L12.3241 10.5759ZM14.6798 10.5759C15.5558 10.5398 16.419 10.463 17.2203 10.3424L17.1906 10.1446C16.3974 10.264 15.5416 10.3402 14.6716 10.3761L14.6798 10.5759ZM17.2199 10.3425C17.4884 10.3032 17.7493 10.2587 18.0025 10.2089L17.9639 10.0126C17.7141 10.0618 17.4564 10.1058 17.191 10.1446L17.2199 10.3425ZM17.8836 10.1193C17.9357 10.7266 17.8611 11.3381 17.6645 11.9151L17.8538 11.9796C18.0594 11.3764 18.1373 10.7371 18.0828 10.1022L17.8836 10.1193ZM17.6645 11.9151C17.4679 12.4921 17.1535 13.0219 16.7413 13.471L16.8887 13.6062C17.3196 13.1367 17.6482 12.5828 17.8538 11.9796L17.6645 11.9151ZM16.7413 13.471C16.3292 13.92 15.8282 14.2786 15.2702 14.5238L15.3506 14.7069C15.934 14.4505 16.4578 14.0757 16.8887 13.6062L16.7413 13.471ZM15.2702 14.5238C14.7121 14.7691 14.1092 14.8958 13.4997 14.8958V15.0958C14.1369 15.0958 14.7672 14.9633 15.3506 14.7069L15.2702 14.5238ZM13.4997 14.8958C12.8901 14.8958 12.2872 14.7691 11.7292 14.5238L11.6487 14.7069C12.2321 14.9633 12.8624 15.0958 13.4997 15.0958V14.8958ZM11.7292 14.5238C11.1712 14.2786 10.6702 13.92 10.2581 13.471L10.1107 13.6062C10.5416 14.0757 11.0654 14.4505 11.6487 14.7069L11.7292 14.5238ZM10.2581 13.471C9.84589 13.0219 9.53153 12.4921 9.33491 11.9151L9.1456 11.9796C9.35116 12.5828 9.67981 13.1367 10.1107 13.6062L10.2581 13.471ZM9.33491 11.9151C9.13828 11.3381 9.06368 10.7266 9.11583 10.1193L8.91656 10.1022C8.86204 10.7371 8.94003 11.3764 9.1456 11.9796L9.33491 11.9151Z" fill="white" mask="url(#path-1-inside-1_11970_869)"/>
</g>
<path id="Vector_2" d="M6.7 19.0807L6.73538 19.0699C7.22694 18.9195 7.73116 18.7835 8.23826 18.6611L8.3 18.6462V18.7097V21.7002H18.7V18.7104V18.6471L18.7616 18.6618C19.523 18.8435 20.2754 19.0612 21.0162 19.3141L21.05 19.3257V19.3614V25.4502H22.45V19.9479V19.871L22.5203 19.9022C22.7391 19.9996 22.9493 20.0997 23.1512 20.2026C23.1512 20.2026 23.1512 20.2026 23.1512 20.2026L23.1285 20.2472C23.9813 20.6807 24.6135 21.1277 25.014 21.5552L6.7 19.0807ZM6.7 19.0807V19.1177V25.4502V19.0807ZM8.2611 17.2179C8.73829 17.1093 9.21807 17.0124 9.7 16.9272V20.2502V20.3002H9.75H17.25H17.3V20.2502V16.9272C17.7738 17.011 18.2557 17.1079 18.7389 17.2179C20.7774 17.6834 22.8345 18.381 24.3808 19.2769C25.9306 20.1749 26.95 21.2617 26.95 22.5002V26.9502H0.05V22.5002C0.05 21.2617 1.06937 20.1749 2.61922 19.2769C4.16547 18.381 6.22263 17.6834 8.2611 17.2179Z" fill="#0B63E5" stroke="white" stroke-width="0.1"/>
</g>
</svg>
