<svg width="27" height="27" viewBox="0 0 27 27" fill="none" xmlns="http://www.w3.org/2000/svg">
<g id="Group 1261155943">
<path id="Vector (Stroke)" fill-rule="evenodd" clip-rule="evenodd" d="M13.05 1.09756C6.42864 1.09756 1.06098 6.65032 1.06098 13.5C1.06098 20.3497 6.42864 25.9024 13.05 25.9024C19.6714 25.9024 25.039 20.3497 25.039 13.5C25.039 6.65032 19.6714 1.09756 13.05 1.09756ZM0 13.5C0 6.04415 5.84268 0 13.05 0C20.2573 0 26.1 6.04415 26.1 13.5C26.1 20.9558 20.2573 27 13.05 27C5.84268 27 0 20.9558 0 13.5Z" fill="#0B63E5"/>
<path id="Vector (Stroke) (Stroke)" fill-rule="evenodd" clip-rule="evenodd" d="M13.5843 0.614258V26.387H12.5166V0.614258H13.5843Z" fill="#0B63E5"/>
<path id="Vector (Stroke)_2" fill-rule="evenodd" clip-rule="evenodd" d="M9.25293 4.58753C8.20672 6.84007 7.54492 9.99034 7.54492 13.5C7.54492 17.0097 8.20672 20.1599 9.25293 22.4125C10.3144 24.6978 11.6864 25.9024 13.0504 25.9024C14.4143 25.9024 15.7864 24.6978 16.8479 22.4125C17.8941 20.1599 18.5559 17.0097 18.5559 13.5C18.5559 9.99034 17.8941 6.84007 16.8479 4.58753C15.7864 2.30215 14.4143 1.09756 13.0504 1.09756C11.6864 1.09756 10.3144 2.30215 9.25293 4.58753ZM8.34103 4.09668C9.45667 1.69463 11.0922 0 13.0504 0C15.0086 0 16.6441 1.69463 17.7598 4.09668C18.8906 6.53155 19.5754 9.8569 19.5754 13.5C19.5754 17.1431 18.8906 20.4684 17.7598 22.9033C16.6441 25.3054 15.0086 27 13.0504 27C11.0922 27 9.45667 25.3054 8.34103 22.9033C7.21015 20.4684 6.52539 17.1431 6.52539 13.5C6.52539 9.8569 7.21015 6.53155 8.34103 4.09668Z" fill="#0B63E5"/>
<path id="Vector (Stroke) (Stroke)_2" fill-rule="evenodd" clip-rule="evenodd" d="M0.592773 12.9482H25.5064V14.0528H0.592773V12.9482Z" fill="#0B63E5"/>
</g>
</svg>
