<svg width="32" height="32" viewBox="0 0 32 32" fill="none" xmlns="http://www.w3.org/2000/svg">
<g id="carbon:ibm-application-and-discovery-delivery-intelligence">
<path id="Vector" d="M9 5.99981H7V15.9998H9V5.99981ZM28.504 8.13581L16.504 1.13581C16.351 1.04655 16.1771 0.999512 16 0.999512C15.8229 0.999512 15.649 1.04655 15.496 1.13581L11.496 3.46981C11.3452 3.55782 11.22 3.6838 11.133 3.83521C11.046 3.98662 11.0001 4.15818 11 4.33281V12.9998H13V4.90781L16 3.15781L27 9.57381V12.9998H29V8.99981C29.0001 8.82501 28.9543 8.65324 28.8673 8.50164C28.7802 8.35005 28.655 8.22391 28.504 8.13581ZM4.999 22.4318V8.99981H3V23.0058C2.99995 23.1806 3.04572 23.3524 3.13275 23.504C3.21978 23.6556 3.34502 23.7817 3.496 23.8698L13.993 29.9998L15 28.2718L4.999 22.4318ZM22 26.9998H24V16.9998H22V26.9998ZM27 26.9998H29V20.9998H27V26.9998ZM17 26.9998H19V18.9998H17V26.9998Z" fill="#0B63E5"/>
</g>
</svg>
