<svg width="35" height="35" viewBox="0 0 35 35" fill="none" xmlns="http://www.w3.org/2000/svg">
<g id="hugeicons:submarine">
<g id="Group">
<path id="Vector" d="M15.3128 17.4995L16.1295 15.697C16.6939 14.4472 16.9753 13.8231 17.5178 13.4745C18.0589 13.1245 18.7428 13.1245 20.1137 13.1245H20.7189C22.0897 13.1245 22.7751 13.1245 23.3162 13.4745C23.8587 13.8245 24.1401 14.4472 24.7059 15.697L25.5212 17.4995M27.7087 17.4995H14.0601C12.6368 17.4995 11.2076 18.7391 10.0322 19.4085C9.53199 19.6928 9.28262 19.8343 9.0522 19.7906C8.82324 19.7468 8.58408 19.4683 8.10428 18.9141C7.10533 17.7533 6.02324 17.4995 4.37533 17.4995C3.57033 17.4995 2.91699 18.2608 2.91699 19.2014V26.006C2.91699 26.9466 3.57033 27.7078 4.37533 27.7078C6.02178 27.7078 7.10387 27.4541 8.10574 26.2933C8.58408 25.7391 8.82324 25.462 9.05366 25.4183C9.28262 25.3731 9.53199 25.516 10.0307 25.8003C11.2091 26.4683 12.6382 27.7078 14.0616 27.7078H27.7087C30.1251 27.7078 32.0837 25.4226 32.0837 22.6037C32.0837 19.7847 30.1251 17.4995 27.7087 17.4995Z" stroke="#0B63E5" stroke-width="1.2" stroke-linecap="round" stroke-linejoin="round"/>
<path id="Vector_2" d="M20.417 13.1247V7.29134C20.417 6.90457 20.5706 6.53363 20.8441 6.26014C21.1176 5.98665 21.4886 5.83301 21.8753 5.83301H23.3337" stroke="#0B63E5" stroke-width="1.2" stroke-linecap="round" stroke-linejoin="round"/>
</g>
</g>
</svg>
