<svg width="32" height="32" viewBox="0 0 32 32" fill="none" xmlns="http://www.w3.org/2000/svg">
<g id="hugeicons:oil-barrel">
<g id="Group">
<path id="Vector" d="M15.9997 8.00033C21.8907 8.00033 26.6663 6.80642 26.6663 5.33366C26.6663 3.8609 21.8907 2.66699 15.9997 2.66699C10.1086 2.66699 5.33301 3.8609 5.33301 5.33366C5.33301 6.80642 10.1086 8.00033 15.9997 8.00033Z" stroke="#0B63E5" stroke-linecap="round" stroke-linejoin="round"/>
<path id="Vector_2" d="M16 16.6673C16.5304 16.6673 17.0391 16.4566 17.4142 16.0815C17.7893 15.7065 18 15.1978 18 14.6673C18 13.334 16 11.334 16 11.334C16 11.334 14 13.334 14 14.6673C14 15.1978 14.2107 15.7065 14.5858 16.0815C14.9609 16.4566 15.4696 16.6673 16 16.6673Z" stroke="#0B63E5" stroke-linecap="round" stroke-linejoin="round"/>
<path id="Vector_3" d="M25.333 6.66699V14.063C26.1823 14.6363 26.6663 15.2977 26.6663 16.0003C26.6663 18.2097 21.8903 20.0003 15.9997 20.0003C10.109 20.0003 5.33301 18.2097 5.33301 16.0003C5.33301 15.2977 5.81701 14.6363 6.66634 14.063V6.66699" stroke="#0B63E5" stroke-linecap="round" stroke-linejoin="round"/>
<path id="Vector_4" d="M25.333 18.0005V23.3965C26.1823 23.9698 26.6663 24.6312 26.6663 25.3338C26.6663 27.5432 21.8903 29.3338 15.9997 29.3338C10.109 29.3338 5.33301 27.5432 5.33301 25.3338C5.33301 24.6312 5.81701 23.9698 6.66634 23.3965V18.0005" stroke="#0B63E5" stroke-linecap="round" stroke-linejoin="round"/>
</g>
</g>
</svg>
