<svg width="36" height="36" viewBox="0 0 36 36" fill="none" xmlns="http://www.w3.org/2000/svg">
<g id="hugeicons:real-estate-02">
<g id="Group">
<path id="Vector" d="M31.5 33.0001V11.2276C31.5 9.58064 31.5 8.75864 31.026 8.06264C30.5535 7.36814 29.682 6.91214 27.9375 5.99864L25.7175 4.83764C22.9815 3.40364 21.612 2.68664 20.5575 3.13064C19.5 3.57464 19.5 4.86764 19.5 7.45064V13.5001M33 33.0001H3M31.5 12.0001H28.5M31.5 16.5001H28.5M31.5 21.0001H28.5" stroke="#0B63E5" stroke-width="1.2" stroke-linecap="round" stroke-linejoin="round"/>
<path id="Vector_2" d="M17.25 19.5H18.75M17.25 24H18.75M12 19.5C12 16.671 12 15.258 12.879 14.379C13.758 13.5 15.171 13.5 18 13.5C20.829 13.5 22.242 13.5 23.121 14.379C24 15.258 24 16.671 24 19.5V33H12V19.5Z" stroke="#0B63E5" stroke-width="1.2" stroke-linecap="round" stroke-linejoin="round"/>
<path id="Vector_3" d="M5.25 24C6.49264 24 7.5 22.6569 7.5 21C7.5 19.3431 6.49264 18 5.25 18C4.00736 18 3 19.3431 3 21C3 22.6569 4.00736 24 5.25 24Z" stroke="#0B63E5" stroke-width="1.2" stroke-linecap="round" stroke-linejoin="round"/>
<path id="Vector_4" d="M5.25 24V33" stroke="#0B63E5" stroke-width="1.2" stroke-linecap="round" stroke-linejoin="round"/>
</g>
</g>
</svg>
